<svg height="539pt" viewBox="0 -9 539.11856 539" width="539pt" xmlns="http://www.w3.org/2000/svg" xmlns:xlink="http://www.w3.org/1999/xlink"><linearGradient id="a" gradientUnits="userSpaceOnUse" x1="39.3017623795" x2="498.3462911135" y1="71.2938698857" y2="530.3383986197"><stop offset="0" stop-color="#662d91"/><stop offset=".437" stop-color="#3873b3"/><stop offset="1" stop-color="#00c9dd"/></linearGradient><path d="m18.03125 404.960938h9.476562l-8.152343 35.992187h-1.800781c-4.96875 0-9 4.027344-9 8.996094v62.988281c0 4.96875 4.03125 8.996094 9 8.996094h152.964843c4.96875 0 8.996094-4.027344 8.996094-8.996094v-62.988281c0-4.96875-4.027344-8.996094-8.996094-8.996094h-1.800781l-8.144531-35.992187h36.9375c9.890625 0 17.929687-7.984376 17.996093-17.878907v-45.105469h26.992188v18.625c0 4.96875 4.03125 9 9 9h35.992188c4.96875 0 8.996093-4.027343 8.996093-9v-18.625h26.996094v45.105469c.0625 9.894531 8.101563 17.878907 17.996094 17.878907h36.890625l-8.101563 35.992187h-1.796875c-4.96875 0-9 4.027344-9 8.996094v62.988281c0 4.96875 4.027344 8.996094 9 8.996094h152.960938c4.96875 0 9-4.027344 9-8.996094v-62.988281c0-4.96875-4.027344-8.996094-9-8.996094h-1.796875l-8.144531-35.992187h9.476562c4.949219-.003907 9.683594-2.027344 13.109375-5.605469 3.351563-3.523438 5.125-8.265625 4.902344-13.128907l-10.347657-216.703124c-.746093-14.378907-12.683593-25.621094-27.082031-25.5h-52.097656v-17.996094h8.996094c4.96875 0 9-4.027344 9-9v-53.984375c0-4.96875-4.03125-9-9-9h-8.996094v-44.988281c0-4.96875-4.03125-8.9960942-9-8.9960942h-89.980469c-4.96875 0-8.996094 4.0273442-8.996094 8.9960942v44.988281h-8.996093c-4.972657 0-9 4.03125-9 9v53.988281c0 4.96875 4.027343 8.996094 9 8.996094h8.996093v17.996094h-8.996093c-4.972657 0-9 4.027343-9 9v44.988281h-26.992188v-26.996094c0-4.96875-4.03125-8.996094-9-8.996094h-8.996093v-17.996093c4.96875 0 8.996093-4.027344 8.996093-9v-17.996094c0-4.96875-4.027343-8.996094-8.996093-8.996094h-17.996094c-4.96875 0-9 4.027344-9 8.996094v17.996094c0 4.96875 4.027344 9 9 9v17.996093h-9c-4.96875 0-8.996094 4.027344-8.996094 8.996094v26.996094h-26.996094v-44.988281c0-4.972657-4.027344-9-8.996094-9h-9v-17.996094h9c4.96875 0 8.996094-4.027344 8.996094-8.996094v-53.988281c0-4.96875-4.027344-9-8.996094-9h-9v-44.988281c0-4.96875-4.027343-8.9960942-8.996093-8.9960942h-89.976563c-4.96875 0-8.996094 4.0273442-8.996094 8.9960942v44.988281h-9c-4.96875 0-8.996093 4.03125-8.996093 9v53.988281c0 4.96875 4.027343 8.996094 8.996093 8.996094h9v17.996094h-52.101562c-14.359375-.070313-26.242188 11.148437-26.992188 25.492187l-10.429687 216.710937c-.210937 4.867188 1.574219 9.609376 4.941406 13.128907 3.414063 3.566406 8.136719 5.589843 13.074219 5.605469zm143.488281 98.976562h-134.96875v-44.988281h134.96875zm-11.265625-62.984375h-112.4375l8.144532-35.992187h96.152343zm47.257813-53.988281h-46.789063c-.460937-.121094-.9375-.203125-1.414062-.242188h-110.492188c-.636718.039063-1.269531.148438-1.882812.324219h-18.894532l.820313-18.078125h178.695313v17.996094zm-177.789063-35.988282 7.332032-152.964843h170.457031v152.964843zm499.515625 0h-177.761719v-152.964843h170.457032zm-6.800781 152.960938h-134.96875v-44.988281h134.96875zm-11.265625-62.984375h-112.472656l8.097656-35.992187h96.230469zm.222656-53.988281c-.402343-.09375-.808593-.164063-1.222656-.207032h-110.4375c-.414063.042969-.824219.113282-1.226563.207032h-47.03125v.117187-18.113281h178.625l.902344 17.996094zm-141.921875-368.910156h71.984375v35.988281h-71.984375zm-17.996094 53.984374h107.976563v35.992188h-107.976563zm17.996094 53.988282h71.984375v17.996094h-71.984375zm-8.996094 35.992187h151.074219c4.765625-.082031 8.757813 3.597657 9.058594 8.359375l.460937 9.636719h-169.59375v-17.996094zm-26.996093 53.988281v107.972657h-26.992188v-107.972657zm-62.984375-35.992187h17.996094v171.589844h-17.996094zm-17.996094 35.992187v107.972657h-26.992188v-107.972657zm-134.96875-197.953124h71.984375v35.988281h-71.984375zm-17.992188 53.984374h107.972657v35.992188h-107.972657zm17.992188 53.988282h71.984375v17.996094h-71.984375zm-70.09375 35.992187h160.074219v17.996094h-169.59375l.433593-9.636719c.300782-4.769531 4.308594-8.457031 9.085938-8.359375zm0 0" fill="url(#a)"/></svg>